<?xml version="1.0" standalone="no"?>
<!DOCTYPE svg PUBLIC "-//W3C//DTD SVG 20010904//EN"
 "http://www.w3.org/TR/2001/REC-SVG-20010904/DTD/svg10.dtd">
<svg version="1.0" xmlns="http://www.w3.org/2000/svg"
 width="600.000000pt" height="600.000000pt" viewBox="0 0 600.000000 600.000000"
 preserveAspectRatio="xMidYMid meet">
<metadata>
Created by potrace 1.14, written by Peter Selinger 2001-2017
</metadata>
<g transform="translate(0.000000,600.000000) scale(0.100000,-0.100000)"
fill="#000000" stroke="none">
<path d="M2905 5993 c-772 -28 -1474 -332 -2021 -878 -491 -490 -795 -1129
-864 -1815 -15 -148 -15 -452 0 -600 69 -686 373 -1325 864 -1815 496 -495
1129 -796 1816 -865 148 -15 452 -15 600 0 1221 122 2262 999 2586 2179 74
268 105 509 105 801 0 292 -31 533 -105 801 -275 1001 -1084 1810 -2085 2085
-280 77 -616 117 -896 107z m415 -818 c366 -55 698 -194 1000 -418 122 -91
346 -315 437 -437 226 -305 362 -632 420 -1010 21 -143 23 -427 3 -588 l-14
-114 52 -156 c29 -87 61 -195 73 -242 25 -104 57 -155 154 -250 86 -82 84 -70
28 -183 l-24 -48 -61 48 c-78 61 -164 156 -206 227 -22 36 -46 101 -68 185
-58 224 -165 495 -324 826 -289 599 -386 827 -401 938 -11 78 -7 315 5 352 6
16 0 24 -26 40 -54 33 -74 34 -156 14 -165 -43 -471 -35 -649 17 -46 13 -89
24 -97 24 -25 0 -66 -41 -101 -102 l-36 -61 33 -34 c18 -19 84 -60 145 -91
129 -64 183 -110 183 -153 0 -40 -35 -143 -68 -199 -15 -25 -61 -88 -103 -141
-88 -111 -99 -128 -99 -164 0 -47 54 -122 133 -186 67 -53 103 -58 168 -25 29
16 58 24 69 21 19 -6 75 -90 152 -230 55 -99 324 -712 360 -820 26 -78 29
-102 26 -180 -5 -132 -22 -162 -190 -324 -76 -74 -138 -139 -138 -144 0 -9
108 -157 114 -157 2 0 45 18 97 41 292 127 481 167 728 156 119 -5 326 -47
376 -74 14 -8 9 -19 -32 -81 -39 -59 -52 -71 -68 -67 -122 34 -211 47 -330 47
-140 0 -210 -9 -332 -42 -68 -18 -90 -30 -159 -86 -317 -259 -670 -415 -1084
-480 -150 -23 -479 -23 -625 0 -229 36 -411 91 -605 183 -205 96 -376 207
-530 344 l-65 57 -100 7 c-169 12 -390 -26 -513 -89 l-47 -24 -48 65 c-33 46
-44 69 -37 78 19 23 167 85 266 112 94 26 111 27 339 28 l240 1 3 67 c2 37 -1
67 -6 67 -20 0 -133 92 -163 132 -31 42 -31 44 -24 128 14 180 60 356 157 600
92 229 168 440 168 464 0 13 -8 30 -17 38 -23 21 -255 128 -276 128 -22 0 -50
-42 -113 -169 -67 -137 -112 -255 -229 -601 -145 -429 -205 -552 -337 -698
-45 -50 -119 -112 -133 -112 -6 0 -28 32 -49 71 l-38 70 41 35 c95 82 188 238
266 449 49 131 50 146 26 240 -57 227 -74 581 -38 815 76 490 279 893 626
1241 383 382 815 583 1386 643 80 8 382 -4 485 -19z"/>
<path d="M1373 4245 c-35 -52 -63 -99 -63 -104 0 -10 47 -29 185 -75 44 -15
91 -36 104 -47 22 -18 23 -24 17 -90 -7 -75 -49 -216 -127 -423 -27 -71 -46
-133 -43 -137 3 -5 35 -24 72 -43 37 -18 98 -50 137 -70 53 -28 79 -36 110
-34 40 3 40 3 86 94 93 187 93 187 245 32 60 -62 128 -135 151 -163 238 -293
406 -749 544 -1474 39 -208 41 -230 31 -290 -6 -36 -14 -76 -17 -88 -6 -20 4
-27 104 -77 61 -31 115 -56 121 -56 5 0 19 19 31 42 68 132 175 234 464 439
71 50 90 68 87 84 -2 11 -37 121 -77 245 -128 393 -155 511 -155 676 0 136 22
226 82 343 38 71 37 115 -4 172 -73 103 -121 139 -183 139 -48 0 -68 -12 -142
-81 -34 -33 -67 -59 -75 -59 -15 0 -163 208 -288 405 -134 212 -285 490 -357
660 l-22 51 -338 12 c-186 7 -401 12 -478 12 l-140 0 -62 -95z"/>
</g>
</svg>
